<?xml version="1.0" standalone="no"?>
<!DOCTYPE svg PUBLIC "-//W3C//DTD SVG 20010904//EN"
 "http://www.w3.org/TR/2001/REC-SVG-20010904/DTD/svg10.dtd">
<svg version="1.0" xmlns="http://www.w3.org/2000/svg"
 width="500.000000pt" height="500.000000pt" viewBox="0 0 500.000000 500.000000"
 preserveAspectRatio="xMidYMid meet">
<metadata>
Created by potrace 1.11, written by Peter Selinger 2001-2013
</metadata>
<g transform="translate(0.000000,500.000000) scale(0.100000,-0.100000)"
fill="#000000" stroke="none">
<path d="M0 2500 l0 -2500 2500 0 2500 0 0 2500 0 2500 -2500 0 -2500 0 0
-2500z m3493 1711 c561 -130 929 -220 962 -235 74 -34 149 -111 188 -194 30
-62 32 -75 32 -172 0 -97 -2 -110 -31 -171 -38 -79 -111 -155 -185 -190 -29
-15 -126 -43 -214 -64 -88 -20 -179 -41 -202 -47 l-42 -10 -3 -632 -3 -631
-36 -75 c-46 -96 -110 -166 -215 -236 -257 -171 -665 -254 -1243 -254 -311 0
-510 18 -744 66 -424 88 -689 280 -737 533 -6 33 -10 284 -10 642 l0 589 -23
5 c-12 3 -101 23 -197 46 -96 22 -198 51 -227 64 -113 51 -200 169 -225 302
-30 163 67 353 216 426 39 19 316 87 963 236 499 115 917 212 928 215 52 13
202 -17 1048 -213z m993 -1167 c12 -9 31 -27 41 -42 17 -25 18 -67 21 -672 2
-599 1 -647 -15 -680 -50 -98 -180 -105 -240 -13 -17 25 -18 69 -21 655 -2
440 1 641 9 670 12 45 56 94 92 101 33 7 87 -2 113 -19z m8 -1655 c112 -103
215 -437 177 -576 -16 -57 -67 -121 -126 -158 -44 -27 -56 -30 -134 -30 -76 0
-92 3 -133 27 -87 52 -138 140 -138 240 0 112 66 329 131 430 76 118 146 139
223 67z"/>
<path d="M2485 4153 c-371 -81 -1806 -420 -1823 -431 -75 -49 -71 -179 7 -225
30 -17 1792 -427 1838 -427 44 0 1815 410 1841 427 33 21 62 73 62 113 0 40
-28 92 -62 114 -13 8 -424 108 -913 220 -1015 234 -924 214 -950 209z"/>
<path d="M1280 2523 c0 -334 4 -552 10 -575 23 -80 181 -190 371 -256 408
-143 1078 -161 1551 -42 215 54 410 152 482 243 l31 39 3 564 c2 459 0 564
-11 564 -7 0 -267 -59 -577 -131 -413 -96 -582 -131 -630 -131 -48 0 -210 33
-632 131 -311 72 -573 131 -582 131 -14 0 -16 -54 -16 -537z"/>
</g>
</svg>
